{
  "accessors": [
    {
      "bufferView": 2,
      "componentType": 5126,
      "count": 2003,
      "max": [19.739999771118164, 45.282257080078125, 64.504997253417969],
      "min": [-19.739999771118164, -3.4399998188018799, 13.80000114440918],
      "type": "VEC3"
    },
    {
      "bufferView": 2,
      "byteOffset": 24036,
      "componentType": 5126,
      "count": 2003,
      "max": [1, 1, 1],
      "min": [-1, -1, -1],
      "type": "VEC3"
    },
    {
      "bufferView": 3,
      "componentType": 5126,
      "count": 2003,
      "max": [1, 1, 1, 1],
      "min": [-1, -1, -1, 1],
      "type": "VEC4"
    },
    {
      "bufferView": 1,
      "componentType": 5126,
      "count": 2003,
      "max": [0.90028494596481323, 0.99000000953674316],
      "min": [0.0099999997764825821, 0.0099999997764825821],
      "type": "VEC2"
    },
    {
      "bufferView": 0,
      "componentType": 5125,
      "count": 4140,
      "max": [2002],
      "min": [0],
      "type": "SCALAR"
    }
  ],
  "asset": {
    "extras": {
      "author": "hoschu (https://sketchfab.com/hoschu)",
      "license": "CC-BY-4.0 (http://creativecommons.org/licenses/by/4.0/)",
      "source": "https://sketchfab.com/models/b005d2125a1545ad9e0994e0deb5e82e",
      "title": "C64 Monitor"
    },
    "generator": "Sketchfab-3.19.6",
    "version": "2.0"
  },
  "bufferViews": [
    {
      "buffer": 0,
      "byteLength": 16560,
      "byteOffset": 0,
      "name": "floatBufferViews",
      "target": 34963
    },
    {
      "buffer": 0,
      "byteLength": 16024,
      "byteOffset": 16560,
      "byteStride": 8,
      "name": "floatBufferViews",
      "target": 34962
    },
    {
      "buffer": 0,
      "byteLength": 48072,
      "byteOffset": 32584,
      "byteStride": 12,
      "name": "floatBufferViews",
      "target": 34962
    },
    {
      "buffer": 0,
      "byteLength": 32048,
      "byteOffset": 80656,
      "byteStride": 16,
      "name": "floatBufferViews",
      "target": 34962
    }
  ],
  "buffers": [
    {
      "byteLength": 112704,
      "uri": "computerTwo.bin"
    }
  ],
  "images": [
    {
      "uri": "texturesComputerTwo/Default_metallicRoughness.png"
    },
    {
      "uri": "texturesComputerTwo/Default_normal.png"
    },
    {
      "uri": "texturesComputerTwo/Default_baseColor.png"
    }
  ],
  "materials": [
    {
      "doubleSided": true,
      "emissiveFactor": [0, 0, 0],
      "name": "Default",
      "normalTexture": {
        "index": 1,
        "scale": 1,
        "texCoord": 0
      },
      "occlusionTexture": {
        "index": 0,
        "strength": 1,
        "texCoord": 0
      },
      "pbrMetallicRoughness": {
        "baseColorFactor": [1, 1, 1, 1],
        "baseColorTexture": {
          "index": 2,
          "texCoord": 0
        },
        "metallicFactor": 1,
        "metallicRoughnessTexture": {
          "index": 0,
          "texCoord": 0
        },
        "roughnessFactor": 0.20731707320000003
      }
    }
  ],
  "meshes": [
    {
      "name": "Mesh_Default_0",
      "primitives": [
        {
          "attributes": {
            "NORMAL": 1,
            "POSITION": 0,
            "TANGENT": 2,
            "TEXCOORD_0": 3
          },
          "indices": 4,
          "material": 0,
          "mode": 4
        }
      ]
    }
  ],
  "nodes": [
    {
      "children": [1],
      "name": "RootNode (gltf orientation matrix)",
      "rotation": [-0.70710678118654746, -0, -0, 0.70710678118654757]
    },
    {
      "children": [2],
      "name": "RootNode (model correction matrix)"
    },
    {
      "children": [3],
      "matrix": [1, 0, 0, 0, 0, 0, 1, 0, 0, -1, 0, 0, 0, 0, 0, 1],
      "name": "d938dc003d164c7fa52ad64eb751149f.fbx"
    },
    {
      "children": [4],
      "name": "RootNode"
    },
    {
      "children": [5],
      "name": "Mesh"
    },
    {
      "mesh": 0,
      "name": "Mesh_Default_0"
    }
  ],
  "samplers": [
    {
      "magFilter": 9729,
      "minFilter": 9987,
      "wrapS": 10497,
      "wrapT": 10497
    }
  ],
  "scene": 0,
  "scenes": [
    {
      "name": "OSG_Scene",
      "nodes": [0]
    }
  ],
  "textures": [
    {
      "sampler": 0,
      "source": 0
    },
    {
      "sampler": 0,
      "source": 1
    },
    {
      "sampler": 0,
      "source": 2
    }
  ]
}
